<svg id="Layer_1" data-name="Layer 1" xmlns="http://www.w3.org/2000/svg" viewBox="0 0 785.34 300.06"><defs><style>.cls-1{fill:#1b2640;}.cls-2{fill:#1e60ad;}.cls-3{fill:#77c04f;}</style></defs><title>Consulting - Primary</title><path class="cls-1" d="M250.16,116.91Q241,108,241,94.22t9.13-22.64a30.93,30.93,0,0,1,22.46-8.9,32.68,32.68,0,0,1,17.22,4.56A27,27,0,0,1,301,80.4h-9.84q-5.55-10.47-18.52-10.47-10.11,0-16.69,6.67t-6.58,17.67q0,11,6.58,17.71a22.36,22.36,0,0,0,16.69,6.72,22,22,0,0,0,11-2.73,18.82,18.82,0,0,0,7.52-7.83H301a27,27,0,0,1-11.14,13.15,32.68,32.68,0,0,1-17.22,4.56A30.85,30.85,0,0,1,250.16,116.91Z"/><path class="cls-1" d="M317.32,119.14q-6.76-7-6.76-18.34t7.07-18.39a25.86,25.86,0,0,1,35.43,0q7.06,7,7.07,18.35t-7.38,18.34a25.18,25.18,0,0,1-18,7Q324.07,126.12,317.32,119.14Zm17.4.27a16.47,16.47,0,0,0,11.94-5q5.07-5,5.06-13.74T346.89,87a15.88,15.88,0,0,0-11.77-4.92A15.3,15.3,0,0,0,323.53,87q-4.65,4.92-4.65,13.74t4.47,13.73A14.7,14.7,0,0,0,334.72,119.41Z"/><path class="cls-1" d="M378.47,76.19v8q5-8.77,16-8.77a18.53,18.53,0,0,1,13.6,5.41q5.46,5.42,5.46,15.44v29.08H405.5V97.58q0-7.42-3.58-11.28T392,82.46c-4.2,0-7.52,1.28-9.93,3.84s-3.63,6.33-3.63,11.28v27.74h-8.14V76.19Z"/><path class="cls-1" d="M424.74,90.06a13,13,0,0,1,5.14-10.42q5.14-4.24,13.33-4.25t12.85,4.16q4.65,4.15,5.1,11.41h-8.42A9.37,9.37,0,0,0,450,84.34a9.94,9.94,0,0,0-7.2-2.51A11,11,0,0,0,435.52,84a7,7,0,0,0-2.64,5.64,5.93,5.93,0,0,0,3,5.32,21.18,21.18,0,0,0,7.24,2.73c2.84.57,5.67,1.23,8.51,2a15.38,15.38,0,0,1,7.24,4.21q3,3.09,3,8.77c0,3.78-1.71,7-5.14,9.57s-7.89,3.89-13.38,3.89-9.89-1.37-13.2-4.11a15.26,15.26,0,0,1-5.41-11.37h8.41a9,9,0,0,0,2.91,6.58,10.8,10.8,0,0,0,7.51,2.46c3.19,0,5.7-.68,7.52-2.06a6.28,6.28,0,0,0,2.73-5.23,6.39,6.39,0,0,0-2.15-5.06,11.94,11.94,0,0,0-5.37-2.59q-3.23-.72-7-1.7t-7-2.11A11.44,11.44,0,0,1,426.88,97,11.06,11.06,0,0,1,424.74,90.06Z"/><path class="cls-1" d="M508.22,76.19h8.14v49.13h-8.14v-7.88q-4.92,8.69-16,8.68a18.55,18.55,0,0,1-13.6-5.41q-5.46-5.42-5.46-15.35V76.19h8.06V104q0,7.33,3.62,11.23t9.89,3.89q6.27,0,9.89-3.89T508.22,104Z"/><path class="cls-1" d="M529.79,125.32V59.1h8.14v66.22Z"/><path class="cls-1" d="M567.46,118.7h6.71v6.62h-8.23q-12.8,0-12.8-12.62V82.81h-6.35V76.19h6.35V64h8.23V76.19h12.71v6.62H561.37V112.7q0,3.31,1.35,4.65T567.46,118.7Z"/><path class="cls-1" d="M591.17,66.71a5.37,5.37,0,0,1-3.94,1.61,5.21,5.21,0,0,1-3.89-1.61,5.46,5.46,0,0,1-1.56-3.94,5.5,5.5,0,1,1,9.39,3.94Zm-8,58.61V76.19h8.14v49.13Z"/><path class="cls-1" d="M612.83,76.19v8q5-8.77,16-8.77a18.53,18.53,0,0,1,13.6,5.41q5.46,5.42,5.46,15.44v29.08h-8V97.58q0-7.42-3.58-11.28t-9.89-3.84c-4.2,0-7.52,1.28-9.93,3.84s-3.62,6.33-3.62,11.28v27.74h-8.15V76.19Z"/><path class="cls-1" d="M664.37,118.92q-6.72-7.2-6.72-18.43t6.67-18.17a22.3,22.3,0,0,1,16.78-6.93,20.15,20.15,0,0,1,11,3,19.42,19.42,0,0,1,7.12,7.7V76.19h8.23v50.38q0,10.11-6.53,16.51t-16.56,6.4q-10,0-16.6-4.65a16.91,16.91,0,0,1-7.47-12.17h8a12.17,12.17,0,0,0,5.46,7,19.33,19.33,0,0,0,10.65,2.77,14.55,14.55,0,0,0,10.6-4.16q4.26-4.17,4.26-11.68V115.3a19.63,19.63,0,0,1-7.12,7.83,20,20,0,0,1-11,3A21.92,21.92,0,0,1,664.37,118.92Zm29.93-4.79q4.88-5,4.88-13.33T694.3,87.47a15.77,15.77,0,0,0-11.72-5,16.07,16.07,0,0,0-11.73,4.83Q666,92.12,666,100.44T670.9,114a16,16,0,0,0,23.4.18Z"/><path class="cls-1" d="M727.9,123.8a5.3,5.3,0,1,1,1.52-3.72A5,5,0,0,1,727.9,123.8Z"/><path class="cls-1" d="M245.23,175.29a8.34,8.34,0,0,1-2.16-5.93,8.07,8.07,0,0,1,2.15-5.84,7.14,7.14,0,0,1,5.39-2.23,6.43,6.43,0,0,1,3.53,1,6.24,6.24,0,0,1,2.29,2.47v-3.16h2.65v15.8h-2.65v-3.22a6.28,6.28,0,0,1-2.29,2.51,6.36,6.36,0,0,1-3.53,1A7,7,0,0,1,245.23,175.29Zm9.63-1.54a6.65,6.65,0,0,0,0-8.58,5.28,5.28,0,0,0-7.54,0,5.65,5.65,0,0,0-1.57,4.23,6.07,6.07,0,0,0,1.58,4.34,5.14,5.14,0,0,0,7.53.06Z"/><path class="cls-1" d="M266,161.55v2.56a5.51,5.51,0,0,1,5.16-2.82,6,6,0,0,1,4.37,1.74,6.67,6.67,0,0,1,1.76,5v9.36h-2.59v-8.92a5.12,5.12,0,0,0-1.16-3.63,4.09,4.09,0,0,0-3.18-1.24,4.16,4.16,0,0,0-3.19,1.24,5.08,5.08,0,0,0-1.17,3.63v8.92h-2.62v-15.8Z"/><path class="cls-2" d="M300.67,157.4v2.07h-7.94v6.8h7.08v2h-7.08v7h7.94v2.07H290.11V157.4Z"/><path class="cls-2" d="M304.64,177.35v-21.3h2.62v21.3Z"/><path class="cls-2" d="M318.2,177.61a7.26,7.26,0,0,1-5.53-2.25,8.24,8.24,0,0,1-2.13-5.93,8.14,8.14,0,0,1,2.16-5.91,8.22,8.22,0,0,1,11.13-.12,7.37,7.37,0,0,1,2.08,5.4,10.56,10.56,0,0,1-.11,1.55H313.22a5.4,5.4,0,0,0,1.48,3.73,4.75,4.75,0,0,0,3.5,1.37,4.9,4.9,0,0,0,2.72-.72,4.21,4.21,0,0,0,1.62-1.9h2.83a7.24,7.24,0,0,1-2.58,3.42A7.46,7.46,0,0,1,318.2,177.61Zm3.54-12.8a4.84,4.84,0,0,0-3.5-1.36,4.77,4.77,0,0,0-3.47,1.34,5.31,5.31,0,0,0-1.52,3.66h9.93A5,5,0,0,0,321.74,164.81Z"/><path class="cls-2" d="M337.63,161.29a7.17,7.17,0,0,1,5.4,2.23,8.07,8.07,0,0,1,2.14,5.84,8.34,8.34,0,0,1-2.16,5.93,7,7,0,0,1-5.38,2.32,6.41,6.41,0,0,1-5.84-3.48v10.7h-2.62V161.55h2.62v3.16a6.36,6.36,0,0,1,2.31-2.47A6.43,6.43,0,0,1,337.63,161.29Zm-.51,14.07a5,5,0,0,0,3.78-1.65,6.09,6.09,0,0,0,1.56-4.35,5.71,5.71,0,0,0-1.56-4.24,5.18,5.18,0,0,0-3.78-1.56,5.11,5.11,0,0,0-3.77,1.61,6.67,6.67,0,0,0,0,8.57A5.08,5.08,0,0,0,337.12,175.36Z"/><path class="cls-2" d="M351.07,156.05v8.06a5.5,5.5,0,0,1,5.15-2.82A6,6,0,0,1,360.6,163a6.67,6.67,0,0,1,1.75,5v9.36h-2.59v-8.92a5.12,5.12,0,0,0-1.15-3.63,4.71,4.71,0,0,0-6.37,0,5.08,5.08,0,0,0-1.17,3.63v8.92h-2.62v-21.3Z"/><path class="cls-2" d="M367.65,175.29a8.34,8.34,0,0,1-2.16-5.93,8.07,8.07,0,0,1,2.15-5.84,7.16,7.16,0,0,1,5.39-2.23,6.43,6.43,0,0,1,3.53,1,6.24,6.24,0,0,1,2.29,2.47v-3.16h2.65v15.8h-2.65v-3.22a6.28,6.28,0,0,1-2.29,2.51,6.36,6.36,0,0,1-3.53,1A7,7,0,0,1,367.65,175.29Zm9.63-1.54a6.65,6.65,0,0,0,0-8.58,5.28,5.28,0,0,0-7.54,0,5.65,5.65,0,0,0-1.57,4.23,6.07,6.07,0,0,0,1.58,4.34,5.14,5.14,0,0,0,7.53.06Z"/><path class="cls-2" d="M388.43,161.55v2.56a5.5,5.5,0,0,1,5.16-2.82A6,6,0,0,1,398,163a6.67,6.67,0,0,1,1.76,5v9.36h-2.59v-8.92A5.17,5.17,0,0,0,396,164.8a4.72,4.72,0,0,0-6.38,0,5.08,5.08,0,0,0-1.17,3.63v8.92h-2.62v-15.8Z"/><path class="cls-2" d="M409.07,175.22h2.16v2.13h-2.65q-4.11,0-4.11-4.06v-9.61h-2.05v-2.13h2.05v-3.92h2.64v3.92h4.09v2.13h-4.09v9.61a2.08,2.08,0,0,0,.44,1.5A2.14,2.14,0,0,0,409.07,175.22Z"/><path class="cls-2" d="M413.53,166a4.2,4.2,0,0,1,1.66-3.36,6.51,6.51,0,0,1,4.29-1.36,6,6,0,0,1,4.13,1.34,5.11,5.11,0,0,1,1.64,3.67h-2.71a3,3,0,0,0-.89-2.13,3.2,3.2,0,0,0-2.32-.81,3.56,3.56,0,0,0-2.33.71,2.26,2.26,0,0,0-.85,1.81,1.89,1.89,0,0,0,1,1.71,6.9,6.9,0,0,0,2.33.88q1.37.27,2.73.63a4.88,4.88,0,0,1,2.33,1.36,3.85,3.85,0,0,1,1,2.82,3.74,3.74,0,0,1-1.66,3.08,7,7,0,0,1-4.3,1.25,6.42,6.42,0,0,1-4.25-1.33,4.93,4.93,0,0,1-1.74-3.65h2.71a2.89,2.89,0,0,0,.93,2.11,3.5,3.5,0,0,0,2.42.8,3.93,3.93,0,0,0,2.42-.67,2,2,0,0,0,.88-1.68,2.07,2.07,0,0,0-.69-1.63,3.83,3.83,0,0,0-1.73-.83c-.69-.15-1.44-.34-2.26-.55s-1.57-.43-2.26-.67a3.66,3.66,0,0,1-1.73-1.26A3.54,3.54,0,0,1,413.53,166Z"/><path class="cls-2" d="M437.88,177.35V157.4h11.23v2.1H440.5v6.77h6.8v2.07h-6.8v9Z"/><path class="cls-2" d="M453.13,175.36a8.11,8.11,0,0,1-2.18-5.9,7.93,7.93,0,0,1,2.28-5.91,8.32,8.32,0,0,1,11.4,0,8,8,0,0,1,2.27,5.9,7.77,7.77,0,0,1-2.38,5.9,8.11,8.11,0,0,1-5.8,2.26A7.41,7.41,0,0,1,453.13,175.36Zm5.59.09a5.31,5.31,0,0,0,3.85-1.6,5.92,5.92,0,0,0,1.62-4.42,6,6,0,0,0-1.55-4.4,5.1,5.1,0,0,0-3.79-1.58,4.88,4.88,0,0,0-3.72,1.58,6.16,6.16,0,0,0-1.5,4.42,6.34,6.34,0,0,0,1.44,4.42A4.74,4.74,0,0,0,458.72,175.45Z"/><path class="cls-2" d="M471.32,175.36a8.11,8.11,0,0,1-2.18-5.9,7.93,7.93,0,0,1,2.28-5.91,8.32,8.32,0,0,1,11.4,0,8,8,0,0,1,2.27,5.9,7.8,7.8,0,0,1-2.37,5.9,8.14,8.14,0,0,1-5.8,2.26A7.44,7.44,0,0,1,471.32,175.36Zm5.6.09a5.3,5.3,0,0,0,3.84-1.6,5.93,5.93,0,0,0,1.63-4.42,6,6,0,0,0-1.56-4.4,5.09,5.09,0,0,0-3.78-1.58,4.91,4.91,0,0,0-3.73,1.58,6.16,6.16,0,0,0-1.5,4.42,6.34,6.34,0,0,0,1.44,4.42A4.75,4.75,0,0,0,476.92,175.45Z"/><path class="cls-2" d="M493.55,175.22h2.16v2.13h-2.65q-4.11,0-4.11-4.06v-9.61H486.9v-2.13H489v-3.92h2.65v3.92h4.08v2.13H491.6v9.61a2.08,2.08,0,0,0,.43,1.5A2.16,2.16,0,0,0,493.55,175.22Z"/><path class="cls-1" d="M509.12,174.64a10.53,10.53,0,0,1,0-14.58,10,10,0,0,1,7.23-2.86,10.5,10.5,0,0,1,5.54,1.47,8.74,8.74,0,0,1,3.59,4.23h-3.17a6.21,6.21,0,0,0-6-3.37,7.23,7.23,0,0,0-5.37,2.15,8.73,8.73,0,0,0,0,11.38,7.2,7.2,0,0,0,5.37,2.16,7,7,0,0,0,3.54-.88,6,6,0,0,0,2.42-2.52h3.17a8.74,8.74,0,0,1-3.59,4.23,10.5,10.5,0,0,1-5.54,1.47A9.93,9.93,0,0,1,509.12,174.64Z"/><path class="cls-1" d="M530.73,175.36a8.1,8.1,0,0,1-2.17-5.9,7.93,7.93,0,0,1,2.27-5.91,8.32,8.32,0,0,1,11.4,0,8,8,0,0,1,2.27,5.9,7.8,7.8,0,0,1-2.37,5.9,8.14,8.14,0,0,1-5.8,2.26A7.44,7.44,0,0,1,530.73,175.36Zm5.6.09a5.28,5.28,0,0,0,3.84-1.6,5.93,5.93,0,0,0,1.63-4.42,6,6,0,0,0-1.56-4.4,5.07,5.07,0,0,0-3.78-1.58,4.91,4.91,0,0,0-3.73,1.58,6.16,6.16,0,0,0-1.5,4.42,6.34,6.34,0,0,0,1.44,4.42A4.75,4.75,0,0,0,536.33,175.45Z"/><path class="cls-1" d="M550.4,161.55v2.56a5.5,5.5,0,0,1,5.15-2.82,6.26,6.26,0,0,1,3.29.88,5.45,5.45,0,0,1,2.21,2.54,6.56,6.56,0,0,1,2.35-2.52,6.37,6.37,0,0,1,3.38-.9,6,6,0,0,1,4.43,1.74,6.67,6.67,0,0,1,1.76,5v9.36h-2.59v-8.92a5.08,5.08,0,0,0-1.17-3.63,4.7,4.7,0,0,0-6.36,0,5.08,5.08,0,0,0-1.16,3.63v8.92h-2.6v-8.92a5.12,5.12,0,0,0-1.15-3.63,4.09,4.09,0,0,0-3.18-1.24,4.14,4.14,0,0,0-3.19,1.24,5.08,5.08,0,0,0-1.17,3.63v8.92h-2.62v-15.8Z"/><path class="cls-1" d="M585.61,161.29a7.16,7.16,0,0,1,5.39,2.23,8.07,8.07,0,0,1,2.15,5.84,8.34,8.34,0,0,1-2.16,5.93,7,7,0,0,1-5.38,2.32,6.36,6.36,0,0,1-3.53-1,6.5,6.5,0,0,1-2.32-2.51v10.7h-2.62V161.55h2.62v3.16a6.44,6.44,0,0,1,5.85-3.42Zm-.51,14.07a5,5,0,0,0,3.77-1.65,6.05,6.05,0,0,0,1.57-4.35,5.67,5.67,0,0,0-1.57-4.24,5.28,5.28,0,0,0-7.54,0,6.63,6.63,0,0,0,0,8.57A5.06,5.06,0,0,0,585.1,175.36Z"/><path class="cls-1" d="M597.55,175.29a8.34,8.34,0,0,1-2.16-5.93,8.07,8.07,0,0,1,2.15-5.84,7.14,7.14,0,0,1,5.39-2.23,6.43,6.43,0,0,1,3.53,1,6.24,6.24,0,0,1,2.29,2.47v-3.16h2.65v15.8h-2.65v-3.22a6.28,6.28,0,0,1-2.29,2.51,6.36,6.36,0,0,1-3.53,1A7,7,0,0,1,597.55,175.29Zm9.63-1.54a6.65,6.65,0,0,0,0-8.58,5.28,5.28,0,0,0-7.54,0,5.65,5.65,0,0,0-1.57,4.23,6.07,6.07,0,0,0,1.58,4.34,5.14,5.14,0,0,0,7.53.06Z"/><path class="cls-1" d="M618.33,161.55v2.56a5.51,5.51,0,0,1,5.16-2.82,6,6,0,0,1,4.37,1.74,6.67,6.67,0,0,1,1.76,5v9.36H627v-8.92a5.17,5.17,0,0,0-1.15-3.63,4.72,4.72,0,0,0-6.38,0,5.08,5.08,0,0,0-1.17,3.63v8.92h-2.61v-15.8Z"/><path class="cls-1" d="M638.22,177.09,632,161.55h2.88l4.83,12.78,4.92-12.78h2.71l-9.53,23.2h-2.7Z"/><path class="cls-3" d="M736,50.14V45.72h18.83v4.42h-6.53V69.58h-5.81V50.14Z"/><path class="cls-3" d="M785.34,45.72V69.58h-5.81V56.12L774,69.58h-4.31l-5.54-13.46V69.58h-5.82V45.72H765l6.86,16.45,6.83-16.45Z"/><path class="cls-3" d="M143,130h0v-6.1a3,3,0,0,0-.42,0l-107,0s-.06,0-.15.08c.11.76.2,1.54.34,2.31a61.38,61.38,0,0,0,4.69,15.27,57.36,57.36,0,0,0,14.34,19.38A52.34,52.34,0,0,0,78.74,173a45,45,0,0,0,6.74.95c1.1.06,2.2.09,3.29.14l.59,0v19.05l-.59,0a68.17,68.17,0,0,1-42-14.92,76.28,76.28,0,0,1-25.54-36.66A78.79,78.79,0,0,1,18,128.14a82.65,82.65,0,0,1-.89-14.82,86,86,0,0,1,.84-9.33A80,80,0,0,1,24.65,81.3a76.27,76.27,0,0,1,16-22.6,71.2,71.2,0,0,1,23-15.17,68.38,68.38,0,0,1,52.08.24A71.44,71.44,0,0,1,138.46,59.1a76.21,76.21,0,0,1,13,17.19c.1.18.21.35.32.52.09-.06.13-.08.14-.11s.14-.24.2-.36a76.07,76.07,0,0,1,19.56-24.13,70.1,70.1,0,0,1,18.47-10.87c1.09-.43,2.2-.82,3.31-1.23V33a33,33,0,0,0-33-33H33A33,33,0,0,0,0,33V199.38a33,33,0,0,0,33,33H143Q143,181.16,143,130Z"/><path class="cls-3" d="M161.77,103.44a3.43,3.43,0,0,0,0,.5h31.72V60.51a51.81,51.81,0,0,0-13.29,8.9A58.75,58.75,0,0,0,161.77,103.44Z"/><path class="cls-3" d="M112.14,62.94a50.79,50.79,0,0,0-20.32-5.29,52.13,52.13,0,0,0-10.37.53,49,49,0,0,0-9.82,2.57A54,54,0,0,0,49.14,76.6a59.31,59.31,0,0,0-12.63,25.06c-.17.73-.31,1.46-.48,2.24H142.65c-.16-.75-.3-1.44-.47-2.13a59.11,59.11,0,0,0-14.46-27.21A53.71,53.71,0,0,0,112.14,62.94Z"/><path class="cls-3" d="M162.62,123.83h-1v.23h0V232.31a33,33,0,0,0,31.84-32.93V123.84Z"/><path class="cls-3" d="M143,232.37v65.21c0,.83,0,1.65,0,2.48h18.51a6,6,0,0,0,.08-.73q0-33.51,0-67ZM36,103.9c.17-.78.31-1.51.48-2.24A59.31,59.31,0,0,1,49.14,76.6,54,54,0,0,1,71.63,60.75a49,49,0,0,1,9.82-2.57,52.13,52.13,0,0,1,10.37-.53,50.79,50.79,0,0,1,20.32,5.29,53.71,53.71,0,0,1,15.58,11.62,59.11,59.11,0,0,1,14.46,27.21c.17.69.31,1.38.47,2.13Z"/></svg>