<svg width="65" height="96" viewBox="0 0 65 96" fill="none" xmlns="http://www.w3.org/2000/svg">
<path d="M50.5018 25.1585C49.3418 23.6885 48.3018 22.1585 47.0818 20.8885C45.4433 19.1858 43.5632 17.7336 41.5018 16.5785C39.1097 15.1884 36.4885 14.2368 33.7618 13.7685C30.6953 13.2135 27.5501 13.2611 24.5018 13.9085C21.5791 14.4667 18.7873 15.5692 16.2718 17.1585C14.0085 18.5865 11.9837 20.3615 10.2718 22.4185C8.33412 24.7581 6.86108 27.4463 5.93179 30.3385C5.47361 32.1706 5.13952 34.0315 4.93179 35.9085C4.80195 36.6816 4.74171 37.4647 4.75179 38.2485C4.83877 44.0076 6.92439 49.5575 10.6518 53.9485C13.4197 57.225 17.0039 59.7122 21.0418 61.1585C23.5126 62.0991 26.1381 62.5672 28.7818 62.5385C29.4918 62.5385 29.6818 62.2785 29.6718 61.6085V57.2685C29.6718 56.2685 29.5418 56.1685 28.6018 56.1385C25.8442 56.0487 23.1485 55.2976 20.7418 53.9485C16.6635 51.7656 13.5887 48.0887 12.1618 43.6885C11.8418 42.7685 11.6518 41.7985 11.3818 40.7585H47.2918V75.7585C47.2918 76.5185 47.0618 76.6785 46.3518 76.6785H11.0018C9.38483 76.6962 7.78772 76.3214 6.34735 75.5864C4.90699 74.8515 3.66635 73.7781 2.73179 72.4585C1.24435 70.4976 0.468481 68.0889 0.531787 65.6285C0.571787 47.2085 0.571787 28.7952 0.531787 10.3885C0.556683 7.95686 1.46678 5.61761 3.09178 3.8085C4.15246 2.5597 5.48337 1.56859 6.98374 0.910227C8.48412 0.251866 10.1146 -0.0564936 11.7518 0.00850142H54.2018C56.254 0.0875041 58.2403 0.754357 59.9245 1.92972C61.6087 3.10508 62.9197 4.73949 63.7018 6.63851C64.7018 8.87851 64.4418 11.2185 64.4318 13.5385C64.4318 13.7285 64.1518 14.0085 63.9318 14.0885C61.597 14.9257 59.3868 16.0762 57.3618 17.5085C54.5572 19.5417 52.2185 22.1498 50.5018 25.1585V25.1585Z" fill="#6FBF43"/>
<path d="M11.6418 33.9785C12.549 29.9551 14.7981 26.36 18.0193 23.7842C21.2406 21.2084 25.2423 19.8052 29.3668 19.8052C33.4912 19.8052 37.493 21.2084 40.7142 23.7842C43.9355 26.36 46.1846 29.9551 47.0918 33.9785H11.6418Z" fill="#6FBF43"/>
<path d="M54.0418 40.6985H64.4318V41.4485C64.4318 49.8285 64.5018 58.1985 64.4318 66.5785C64.3921 68.2098 63.9507 69.8061 63.1465 71.226C62.3424 72.6459 61.2004 73.8455 59.8218 74.7185C58.3246 75.77 56.5749 76.405 54.7518 76.5585H54.0218C54.0418 64.5885 54.0418 52.6985 54.0418 40.6985Z" fill="#6FBF43"/>
<path d="M47.5718 76.9085H53.7018V95.0685C53.7018 95.7385 53.5018 95.9185 52.8518 95.9085H48.1218C47.6818 95.9085 47.4418 95.8285 47.4418 95.3085V77.1585C47.4709 77.0685 47.5148 76.984 47.5718 76.9085V76.9085Z" fill="#6FBF43"/>
<path d="M64.4218 20.7585C64.4218 21.0985 64.4718 21.2985 64.4718 21.4985V33.2685C64.4718 33.8885 64.3018 34.0985 63.6718 34.0885H54.7418C53.9218 34.0885 53.9218 34.0085 54.1318 33.2185C54.7825 30.6413 55.9606 28.2272 57.5918 26.1285C59.1811 24.08 61.2024 22.4069 63.5118 21.2285L64.4218 20.7585Z" fill="#6FBF43"/>
</svg>
